<mxfile host="app.diagrams.net" modified="2024-05-15T08:49:02.693Z" agent="Mozilla/5.0 (Windows NT 10.0; Win64; x64; rv:109.0) Gecko/20100101 Firefox/115.0" version="24.4.0" etag="6z2qisHRCOyDp5oe72_K" type="github">
  <diagram name="Seite-1" id="NcHTkNhlbZRbU4LmIw6B">
    <mxGraphModel>
      <root>
        <mxCell id="0" />
        <mxCell id="1" parent="0" />
      </root>
    </mxGraphModel>
  </diagram>
</mxfile>
